<svg width="40.000000" height="47.000000" viewBox="0 0 40 47" fill="none" xmlns="http://www.w3.org/2000/svg" xmlns:xlink="http://www.w3.org/1999/xlink">
	<desc>
			Created with Pixso.
	</desc>
	<defs/>
	<path id="Vector" d="M28.65 -0.71C26.43 -0.45 23.28 1.51 21.71 3.61C20.81 4.81 20.28 5.96 19.82 7.69L19.59 8.55L19.6 9.47C19.61 9.98 19.64 10.45 19.67 10.52C19.74 10.7 19.87 10.73 20.84 10.74C21.64 10.74 21.68 10.74 22.37 10.53C24.2 10 25.53 9.21 26.49 8.07C26.72 7.79 27.06 7.42 27.24 7.24C27.84 6.65 28.61 5.33 29.04 4.2C29.47 3.05 29.66 1.99 29.71 0.48L29.75 -0.48L29.6 -0.63C29.45 -0.79 29.36 -0.79 28.65 -0.71Z" fill="#717171" fill-opacity="1.000000" fill-rule="nonzero"/>
	<path id="Vector" d="M28.35 11C27.24 11.05 24.25 11.85 22.11 12.67C20.81 13.16 20.81 13.16 20.55 13.2C20.1 13.27 19.01 12.96 17.12 12.23C16.12 11.84 15.09 11.55 13.56 11.22C12.93 11.08 11.87 11.07 11.41 11.19C11.22 11.24 10.64 11.35 10.11 11.44C8.98 11.63 8.34 11.82 7.49 12.23C4.92 13.44 3.17 15.18 1.78 17.91C1.17 19.11 0.71 20.28 0.38 21.53C-0.12 23.38 -0.13 26.94 0.35 29.1C0.41 29.37 0.46 29.68 0.46 29.8C0.46 30.06 0.51 30.26 0.98 32.05C1.42 33.7 1.37 33.57 2.21 35.59C3.38 38.43 3.75 39.06 6.14 42.24C7.12 43.54 7.62 44.14 8.34 44.85C9.09 45.59 9.71 46.03 10.57 46.44C11.54 46.9 11.97 47 12.86 46.99C14.01 46.99 14.94 46.77 16.69 46.05C17.8 45.61 17.88 45.58 19.89 45.18C20.5 45.06 21.06 45.07 21.91 45.2C22.2 45.25 22.64 45.31 22.87 45.35C23.35 45.41 23.83 45.56 25.07 46.04C26.57 46.63 27.63 46.89 28.74 46.95C30.35 47.05 31.91 46.36 33.57 44.82C35.27 43.23 36.85 41.06 38.46 38.14C38.89 37.35 39.58 35.73 39.69 35.24C39.74 35.05 39.83 34.81 39.89 34.71C39.94 34.61 40 34.48 40 34.42C40 34.22 39.59 33.91 38.86 33.56C37.5 32.89 36.16 31.73 35.26 30.43C34.62 29.49 33.81 27.26 33.81 27.26L33.61 23.37L33.92 22.1C33.92 22.1 34.9 19.47 35.8 18.54C36.08 18.26 36.3 18.01 36.3 17.99C36.3 17.9 37.67 16.79 38.01 16.61C38.19 16.51 38.43 16.35 38.53 16.25C38.84 15.96 38.79 15.85 38.02 14.97C36.98 13.8 35.68 12.83 34.14 12.11C33.19 11.67 31.6 11.26 31.6 11.26C31.6 11.26 29.24 10.95 28.35 11Z" fill="#717171" fill-opacity="1.000000" fill-rule="nonzero"/>
</svg>
