<?xml version="1.0" encoding="utf-8"?><!DOCTYPE svg PUBLIC "-//W3C//DTD SVG 1.1//EN" "http://www.w3.org/Graphics/SVG/1.1/DTD/svg11.dtd"><svg version="1.1" xmlns="http://www.w3.org/2000/svg" xmlns:xlink="http://www.w3.org/1999/xlink" width="32" height="32" viewBox="0 0 32 32" data-tags="basketball"><g fill="#444" transform="scale(0.03125 0.03125)"><path d="M544 160.342c89.925 3.847 171.491 39.965 233.411 97.068v0c-62.091 67.562-101.24 156.543-105.097 254.591h-128.314v-351.658zM512 160.342v351.658h-128.314c-3.857-98.048-43.006-187.029-105.097-254.591h-0c61.92-57.103 143.486-93.221 233.411-97.068zM544 895.658v-351.658h128.314c3.857 98.048 43.006 187.029 105.097 254.591v0c-61.92 57.103-143.486 93.221-233.411 97.068zM512 895.658c-89.925-3.847-171.491-39.965-233.411-97.068 62.091-67.562 101.24-156.543 105.097-254.591h128.314v351.658zM800 280.125c56.287 61.73 91.843 142.692 95.658 231.875v0h-191.317c3.815-89.183 39.371-170.144 95.658-231.875v0 0zM800 775.875v0 0c-56.287-61.73-91.843-142.692-95.658-231.875h191.317v0c-3.815 89.183-39.371 170.144-95.658 231.875zM160.342 512c3.815-89.183 39.371-170.144 95.658-231.875v0c56.287 61.73 91.843 142.692 95.658 231.875h-191.317zM160.342 544h191.317c-3.815 89.183-39.371 170.144-95.658 231.875-56.287-61.73-91.843-142.692-95.658-231.875zM528 928c220.914 0 400-179.086 400-400s-179.086-400-400-400c-220.914 0-400 179.086-400 400s179.086 400 400 400v0z" /></g></svg>