<svg width="13" height="15" viewBox="0 0 13 15" fill="none" xmlns="http://www.w3.org/2000/svg">
<path d="M10.5311 11.1994C10.2757 10.601 9.90517 10.0575 9.44002 9.59908C8.97628 9.13934 8.42694 8.7728 7.82233 8.51969C7.81691 8.51701 7.8115 8.51567 7.80608 8.51299C8.64945 7.91035 9.1977 6.92872 9.1977 5.82121C9.1977 3.98651 7.69508 2.5 5.84049 2.5C3.9859 2.5 2.48328 3.98651 2.48328 5.82121C2.48328 6.92872 3.03153 7.91035 3.87489 8.51433C3.86948 8.51701 3.86407 8.51835 3.85865 8.52102C3.25219 8.77413 2.70799 9.13706 2.24096 9.60042C1.77624 10.0592 1.40573 10.6026 1.14987 11.2008C0.898513 11.7863 0.762952 12.4141 0.750522 13.0502C0.750161 13.0645 0.752695 13.0787 0.757975 13.092C0.763256 13.1053 0.771176 13.1174 0.781268 13.1277C0.791361 13.1379 0.803422 13.146 0.816741 13.1516C0.83006 13.1571 0.844367 13.16 0.858819 13.16H1.67105C1.73061 13.16 1.77799 13.1131 1.77935 13.0555C1.80642 12.0217 2.22607 11.0534 2.96791 10.3196C3.73546 9.56024 4.75481 9.14241 5.84049 9.14241C6.92617 9.14241 7.94551 9.56024 8.71307 10.3196C9.45491 11.0534 9.87456 12.0217 9.90163 13.0555C9.90299 13.1145 9.95037 13.16 10.0099 13.16H10.8222C10.8366 13.16 10.8509 13.1571 10.8642 13.1516C10.8776 13.146 10.8896 13.1379 10.8997 13.1277C10.9098 13.1174 10.9177 13.1053 10.923 13.092C10.9283 13.0787 10.9308 13.0645 10.9305 13.0502C10.9169 12.41 10.7829 11.7873 10.5311 11.1994ZM5.84049 8.12462C5.21913 8.12462 4.63433 7.88491 4.19437 7.44967C3.75441 7.01443 3.5121 6.4359 3.5121 5.82121C3.5121 5.20652 3.75441 4.62798 4.19437 4.19274C4.63433 3.7575 5.21913 3.51779 5.84049 3.51779C6.46184 3.51779 7.04665 3.7575 7.4866 4.19274C7.92656 4.62798 8.16888 5.20652 8.16888 5.82121C8.16888 6.4359 7.92656 7.01443 7.4866 7.44967C7.04665 7.88491 6.46184 8.12462 5.84049 8.12462Z" fill="#333333"/>
</svg>
