<svg width="15" height="13" viewBox="0 0 15 13" fill="none" xmlns="http://www.w3.org/2000/svg">
<path d="M6.85132 10.3749C6.12752 10.3749 5.54248 10.9258 5.54248 11.6074C5.54248 12.289 6.12752 12.84 6.85132 12.84C7.57512 12.84 8.16016 12.289 8.16016 11.6074C8.16016 10.9294 7.57512 10.3749 6.85132 10.3749Z" fill="#343A40"/>
<path d="M11.6184 10.3749C10.8946 10.3749 10.3096 10.9258 10.3096 11.6074C10.3096 12.289 10.8946 12.84 11.6184 12.84C12.3422 12.84 12.9272 12.289 12.9272 11.6074C12.9272 10.9294 12.3422 10.3749 11.6184 10.3749Z" fill="#343A40"/>
<path d="M5.1416 9.80486L5.16409 9.7923H5.1416V9.80486Z" fill="#343A40"/>
<path d="M13.0246 7.81553C13.0433 7.79787 13.0583 7.78021 13.0696 7.75902C13.0733 7.75196 13.0771 7.74843 13.0808 7.74136C13.0958 7.71664 13.1071 7.69192 13.1146 7.66366L14.9522 3.21023C15.0684 2.93476 14.9672 2.61691 14.7084 2.44739C14.5359 2.33437 14.3334 2.2708 14.1234 2.2708H4.11026L3.57397 0.413144C3.49897 0.176523 3.26645 0.0140656 3.00019 0.010534L0.562535 -6.10352e-05C0.243765 -6.10352e-05 0 0.169459 0 0.441398C0 0.713336 0.247515 0.992339 0.566285 0.988807L2.71517 1.03825L5.17157 9.78973H13.0471C13.4333 9.78973 13.7484 9.58136 13.7484 9.32355C13.7484 9.06574 13.4333 8.85737 13.0471 8.85737H5.98537L5.73036 7.97092H12.6308C12.792 7.97445 12.9346 7.91088 13.0246 7.81553ZM5.49409 7.14804L5.40784 6.85138C5.39284 6.79487 5.37034 6.74543 5.34408 6.69599L4.32402 3.19963H14.0146L12.387 7.14451H5.49409V7.14804Z" fill="#343A40"/>
</svg>
