<svg width="95" height="33" viewBox="0 0 95 33" fill="none" xmlns="http://www.w3.org/2000/svg">
<g clip-path="url(#clip0_1552_8722)">
<path d="M0.541016 32V0.491211H10.5448C20.5748 0.491211 25.5898 5.61084 25.5898 15.8501C25.5898 20.7573 24.218 24.6758 21.4741 27.6055C18.7434 30.5352 15.1003 32 10.5448 32H0.541016ZM6.90168 6.27002V26.2432H10.0525C12.8094 26.2432 14.969 25.3203 16.5313 23.4746C18.1067 21.6289 18.8944 19.1167 18.8944 15.938C18.8944 12.9351 18.1132 10.5767 16.551 8.86279C15.0019 7.13428 12.8225 6.27002 10.0131 6.27002H6.90168Z" fill="#0082D0"/>
<path d="M32.4424 32.5493C31.4184 32.5493 30.5651 32.1978 29.8824 31.4946C29.1998 30.7915 28.8584 29.9272 28.8584 28.9019C28.8584 27.8472 29.2063 26.9829 29.9021 26.3091C30.6111 25.6353 31.4906 25.2983 32.5409 25.2983C33.6043 25.2983 34.4707 25.6426 35.1403 26.3311C35.823 27.0049 36.1643 27.8618 36.1643 28.9019C36.1643 29.9712 35.8164 30.8501 35.1206 31.5386C34.4379 32.2124 33.5452 32.5493 32.4424 32.5493ZM64.2458 18.355C64.2458 27.8179 60.2941 32.5493 52.3909 32.5493C44.7239 32.5493 40.8905 27.9277 40.8905 18.6846V0.491211H47.2708V18.7725C47.2708 23.8701 49.0563 26.4189 52.6272 26.4189C56.1324 26.4189 57.8851 23.958 57.8851 19.0361V0.491211H64.2458V18.355ZM94.3356 32H87.4041L85.3954 24.9907H75.3522L73.3633 32H66.471L76.7505 0.491211H84.2926L94.3356 32ZM83.9382 19.5415L80.9055 8.95068C80.6824 8.15967 80.5248 7.21484 80.4329 6.11621H80.2754C80.2098 7.03906 80.0457 7.95459 79.7831 8.86279L76.7111 19.5415H83.9382Z" fill="#212529"/>
</g>
<defs>
<clipPath id="clip0_1552_8722">
<rect width="95" height="33" fill="white"/>
</clipPath>
</defs>
</svg>
